# xmcd CD database file
# Copyright (C) 1995-1998 Ti Kan
#
# Track frame offsets:
#	150
#	14590
#	29888
#	39815
#	60308
#	69129
#	83832
#	99609
#	112961
#	124513
#
# Disc length: 1822 seconds
#
# Revision: 1
# Processed by: cddbd v1.4b41PL1 Copyright (c) Steve Scherf et al.
# Submitted via: CDex 1.30
#
DISCID=75071c0a
DTITLE=Anne Murray - What About Me?
DYEAR=1969
DGENRE=Country
TTITLE0=What About Me?
TTITLE1=Both Sides Now
TTITLE2=It's All Over
TTITLE3=Some Birds/For Baby
TTITLE4=Paths Of Victory
TTITLE5=David's Song
TTITLE6=There Goes My Everything
TTITLE7=Buffalo In The Park
TTITLE8=Last Thing On My Mind
TTITLE9=All The Time
EXTD=\nYEAR: 1969  ID3G:   2
EXTT0=
EXTT1=
EXTT2=
EXTT3=
EXTT4=
EXTT5=
EXTT6=
EXTT7=
EXTT8=
EXTT9=
PLAYORDER=
